<?xml version="1.0" encoding="UTF-8"?>
<!DOCTYPE svg PUBLIC "-//W3C//DTD SVG 1.1//EN" "http://www.w3.org/Graphics/SVG/1.1/DTD/svg11.dtd">
<!-- Creator: CorelDRAW 2020 (64-Bit) -->
<svg xmlns="http://www.w3.org/2000/svg" xml:space="preserve" width="297mm" height="210mm" version="1.1" style="shape-rendering:geometricPrecision; text-rendering:geometricPrecision; image-rendering:optimizeQuality; fill-rule:evenodd; clip-rule:evenodd"
viewBox="0 0 29700 21000"
 xmlns:xlink="http://www.w3.org/1999/xlink"
 xmlns:xodm="http://www.corel.com/coreldraw/odm/2003">
 <defs>
  <style type="text/css">
   <![CDATA[
    .fil1 {fill:url(#id0)}
    .fil0 {fill:url(#id1)}
    .fil2 {fill:url(#id2)}
   ]]>
  </style>
  <linearGradient id="id0" gradientUnits="userSpaceOnUse" x1="5137.92" y1="19525.46" x2="8083.04" y2="18452.91">
   <stop offset="0" style="stop-opacity:1; stop-color:#C81A1B"/>
   <stop offset="0.258824" style="stop-opacity:1; stop-color:#E31B1C"/>
   <stop offset="1" style="stop-opacity:1; stop-color:#FF1D1E"/>
  </linearGradient>
  <linearGradient id="id1" gradientUnits="userSpaceOnUse" x1="11267.1" y1="4155.94" x2="17578.41" y2="6105.9">
   <stop offset="0" style="stop-opacity:1; stop-color:#FF3B3C"/>
   <stop offset="1" style="stop-opacity:1; stop-color:#FF1D1E"/>
  </linearGradient>
  <linearGradient id="id2" gradientUnits="userSpaceOnUse" x1="20198.62" y1="15213.09" x2="16446.77" y2="11511.64">
   <stop offset="0" style="stop-opacity:1; stop-color:#FF3B3C"/>
   <stop offset="0.658824" style="stop-opacity:1; stop-color:#E42B2C"/>
   <stop offset="1" style="stop-opacity:1; stop-color:#C81A1B"/>
  </linearGradient>
 </defs>
 <g id="Layer_x0020_1">
  <metadata id="CorelCorpID_0Corel-Layer"/>
  <g id="_2932846529744">
   <path class="fil0" d="M18470.9 9401.67c0,0 1342.82,-2645.64 651.38,-3066.54 -691.44,-420.9 -5341.34,-200.39 -7064.99,-150.31 -1723.66,50.09 -3687.86,2139.56 -3687.86,2139.56 0,0 821.77,-3131.63 2214.73,-5286.23 1392.95,-2154.6 3026.41,-2826.02 7896.76,-2665.67 4870.36,160.35 6724.3,-30.07 7766.51,2595.51 1042.21,2625.59 -972.08,4760.12 -1493.18,5221.1 -521.09,460.99 -2004.27,1022.19 -3266.93,1162.48 -1262.67,140.28 -3016.42,50.1 -3016.42,50.1z"/>
   <path class="fil1" d="M3156.56 20500.4c848.82,-2588.81 2657.44,-4931.82 5672.06,-5130.9 2040.29,-134.73 3407.22,0 3407.22,0 0,0 -778.32,2617.09 -1803.83,3687.84 -1985.84,2073.44 -4438.39,1565.65 -7275.45,1443.06z"/>
   <path class="fil2" d="M25945.38 6515.55c0,0 -678.94,3160.9 -7375.67,2846.04 -6696.72,-314.86 -10762.87,-280.57 -12205.93,3848.18 -1443.07,4128.76 -1863.97,4689.96 -1863.97,4689.96 0,0 1302.76,-2625.62 8417.89,-2365.06 7115.12,260.57 9901.3,-127.64 11123.63,-3186.74 1222.34,-3059.09 1904.05,-5832.38 1904.05,-5832.38z"/>
  </g>
 </g>
</svg>
